<svg width="108" height="130" viewBox="0 0 108 130" fill="none" xmlns="http://www.w3.org/2000/svg">
<path d="M87.9664 43.425C90.3343 66.4998 73.5481 87.1252 50.4733 89.4932C27.3986 91.8611 6.77316 75.0749 4.40522 52.0001C2.03727 28.9253 18.8235 8.29995 41.8983 5.932C64.973 3.56406 85.5984 20.3503 87.9664 43.425ZM14.8598 50.9273C16.6352 68.2282 32.0996 80.814 49.4005 79.0386C66.7014 77.2632 79.2873 61.7988 77.5118 44.4979C75.7364 27.197 60.272 14.6111 42.9711 16.3865C25.6702 18.162 13.0843 33.6264 14.8598 50.9273Z" fill="#D9D9D9"/>
<rect x="73.9823" y="67.9809" width="52.1697" height="21" rx="9" transform="rotate(50.9913 73.9823 67.9809)" fill="#D9D9D9"/>
</svg>
