<svg width="87" height="82" viewBox="0 0 87 82" fill="none" xmlns="http://www.w3.org/2000/svg">
<g filter="url(#filter0_i_12_4)">
<path d="M40.6877 2.57168C41.6561 -0.0355968 45.3439 -0.0355929 46.3123 2.57169L55.2086 26.5237C55.6333 27.6674 56.7084 28.4399 57.9278 28.4777L83.9618 29.285C86.7929 29.3728 87.9365 32.974 85.6747 34.6791L65.247 50.0793C64.2458 50.8341 63.8196 52.1319 64.1784 53.3333L71.411 77.5495C72.2127 80.2336 69.2246 82.4544 66.8856 80.9129L45.1509 66.5881C44.1493 65.9279 42.8507 65.9279 41.8491 66.5881L20.1144 80.9129C17.7754 82.4544 14.7873 80.2336 15.589 77.5495L22.8216 53.3333C23.1804 52.1319 22.7542 50.8341 21.753 50.0793L1.32526 34.6791C-0.936486 32.974 0.207121 29.3728 3.03822 29.285L29.0722 28.4777C30.2916 28.4399 31.3667 27.6674 31.7914 26.5237L40.6877 2.57168Z" fill="#9B9B9B"/>
</g>
<path d="M45.8436 2.74578L54.7398 26.6978C55.2354 28.0321 56.4897 28.9333 57.9124 28.9775L83.9463 29.7848C86.3055 29.8579 87.2585 32.8589 85.3737 34.2798L64.946 49.68C63.778 50.5606 63.2807 52.0748 63.6994 53.4764L70.932 77.6926C71.6 79.9293 69.1099 81.78 67.1608 80.4954L45.4261 66.1706C44.2575 65.4004 42.7425 65.4004 41.5739 66.1706L19.8392 80.4954C17.8901 81.78 15.4 79.9293 16.068 77.6926L23.3006 53.4764C23.7193 52.0748 23.222 50.5606 22.054 49.68L1.62625 34.2798C-0.258537 32.8589 0.69447 29.8579 3.05372 29.7848L29.0877 28.9775C30.5103 28.9333 31.7646 28.0321 32.2602 26.6978L41.1564 2.74577C41.9634 0.573041 45.0366 0.573042 45.8436 2.74578Z" stroke="#CACACA" stroke-opacity="0.85"/>
<defs>
<filter id="filter0_i_12_4" x="0.12616" y="0.616211" width="86.7477" height="84.8034" filterUnits="userSpaceOnUse" color-interpolation-filters="sRGB">
<feFlood flood-opacity="0" result="BackgroundImageFix"/>
<feBlend mode="normal" in="SourceGraphic" in2="BackgroundImageFix" result="shape"/>
<feColorMatrix in="SourceAlpha" type="matrix" values="0 0 0 0 0 0 0 0 0 0 0 0 0 0 0 0 0 0 127 0" result="hardAlpha"/>
<feOffset dy="4"/>
<feGaussianBlur stdDeviation="2"/>
<feComposite in2="hardAlpha" operator="arithmetic" k2="-1" k3="1"/>
<feColorMatrix type="matrix" values="0 0 0 0 0.483333 0 0 0 0 0.483333 0 0 0 0 0.483333 0 0 0 1 0"/>
<feBlend mode="normal" in2="shape" result="effect1_innerShadow_12_4"/>
</filter>
</defs>
</svg>
